<svg xmlns="http://www.w3.org/2000/svg" viewBox="0 0 248.45 168.51"><defs><style>.cls-1{fill:#141313;}</style></defs><g id="Layer_2" data-name="Layer 2"><g id="Layer_1-2" data-name="Layer 1"><path class="cls-1" d="M219.54,17.32H28.91V125.69H219.54ZM78.84,36.46h90.77v8.13H78.84Zm112.38,61h-134V89.34h134Zm0-26.69h-134V62.64h134Z"/><path class="cls-1" d="M236.86,132.3V0H11.59V132.3A14.67,14.67,0,0,0,0,146.62v21.89H248.45V146.62A14.67,14.67,0,0,0,236.86,132.3ZM11,146.62a3.62,3.62,0,0,1,.6-2A3.67,3.67,0,0,1,14.64,143H90.7v6.15h67.05V143H233.8a3.67,3.67,0,0,1,3.06,1.66,3.62,3.62,0,0,1,.6,2v10.9H11ZM22.58,11H225.87V132H146.76v5.68H101.69V132H22.58Z"/></g></g></svg>