<?xml version="1.0" encoding="utf-8"?>
<!-- Generator: Adobe Illustrator 25.3.1, SVG Export Plug-In . SVG Version: 6.00 Build 0)  -->
<svg version="1.1" id="Layer_1" xmlns="http://www.w3.org/2000/svg" xmlns:xlink="http://www.w3.org/1999/xlink" x="0px" y="0px"
	 viewBox="0 0 512 512" style="enable-background:new 0 0 512 512;" xml:space="preserve">
<path d="M256,19.1c-70.8,0-167.5,1.1-187.1,2.9C47,35.1,3.4,85.1,3,98.1v21.8c0,27.5,25.8,51.7,49.1,51.7
	c27.9,0,51.3-23.3,51.3-50.8c0,27.5,22.7,50.8,50.6,50.8c28.2,0,49.9-23.3,49.9-50.8c0,27.5,23.7,50.8,51.9,50.8h0.5
	c28.2,0,51.9-23.3,51.9-50.8c0,27.5,22,50.8,49.9,50.8c27.9,0,50.6-23.3,50.6-50.8c0,27.5,23.3,50.8,51.3,50.8
	c23.3,0,49.1-24.2,49.1-51.7V98.1c-0.4-13-44-63-66-76.2C374.6,19.5,326.9,19.1,256,19.1z M202.7,166c-22.9,39.4-80.6,39.9-103,0.3
	c-13.7,23.8-44.8,33-58.1,28.5C37.7,236,35,448.4,63.2,484c82.7,19.3,305.4,18.9,385.7,0c32.6-33.2,25.3-251,21.6-289.3
	c-13.3,4.5-44.4-4.7-57.9-28.5c-22.7,39.6-80.3,39.2-103.3-0.3c-7.1,12.9-23.6,29.8-53.4,29.8C234.2,196.6,213.6,184.8,202.7,166z
	 M156.3,215.1c17.4,0,33.3,0,52.5,21.4c31.6-3.3,62.9-3.3,94.5,0c19.4-21.1,35.1-21.1,52.5-21.1c56.2,0,69.7,83,90,154.4
	c18.3,66.4-6.1,68.2-36.4,68.2c-45.1-1.7-70.1-34.4-70.1-67.3c-42,7-109.1,9.6-166.4,0c0,32.9-25,65.6-70.1,67.3
	c-30.3,0-54.7-1.8-36.4-68.2c20.3-71.9,33.8-154.4,90-154.4V215.1z M256,277.8c0,0-36.9,34-43.6,45.9l24.1-0.9v21.1
	c0,1.3,17.8,0.2,19.4,0.2c9.7,0.4,19.4,0.7,19.4-0.2v-21.1l24.1,0.9C292.9,311.8,256,277.8,256,277.8z"/>
</svg>
